<svg id="Capa_2" data-name="Capa 2" xmlns="http://www.w3.org/2000/svg" viewBox="0 0 500.5 268.76"><defs><style>
.cls-1{fill:none;stroke:#0000007c;stroke-miterlimit:10;}
.cls-2{font-size:12px;}.cls-10,.letra-chica,.cls-2,.cls-24{font-family:Nunito, Myriad Pro; fill: #0000007c;}
.cls-3{letter-spacing:0em;}
.cls-28{font-family:Nunito, Myriad Pro; fill: #0000007c;font-size:7px;}
.cls-29{fill:#52bcc991;stroke:#0000007c;}
.cls-30{fill:#a8a1985e;}
.letra-chica{font-size:8px;}
.cls-4{letter-spacing:-0.01em;}.cls-5{letter-spacing:0.01em;}.cls-6{letter-spacing:0em;}.cls-7{letter-spacing:0em;}.cls-8{letter-spacing:0.02em;}.cls-9{fill:#f8f3e9;}
.cls-10{font-size:10px;}.cls-11{letter-spacing:-0.08em;}.cls-12{letter-spacing:-0.01em;}.cls-13{letter-spacing:-0.02em;}.cls-14{letter-spacing:0em;}.cls-15{letter-spacing:-0.08em;}.cls-16{letter-spacing:-0.03em;}.cls-17{letter-spacing:-0.02em;}.cls-18{letter-spacing:-0.04em;}.cls-19{letter-spacing:-0.08em;}.cls-20{letter-spacing:-0.03em;}.cls-21{letter-spacing:-0.04em;}.cls-22{letter-spacing:-0.07em;}.cls-23{letter-spacing:0.02em;}.cls-24{font-size:8.59px;}.cls-25{letter-spacing:0em;}.cls-26{letter-spacing:-0.04em;}</style></defs>
<rect id="area1" class="cls-1" x="336.86" y="0.5" width="48" height="36.57"/>
<rect id="area2" class="cls-1" x="190.57" y="30.64" width="53.14" height="36"/>
<rect id="oftalmologia" class="cls-1" x="248.29" y="30.79" width="74.86" height="33.71"/>
<rect id="medicinageneral" class="cls-1" x="187.71" y="98.5" width="51.43" height="53.82"/>
<rect id="radiologia" class="cls-1" x="148.29" y="98.5" width="35.43" height="54.86"/>
<polygon class="cls-1" points="241.43 264.93 336.29 264.93 336.29 225.5 329.45 225.5 329.45 195.07 284.58 195.07 284.58 215.21 241.43 215.21 241.43 264.93"/><polygon class="cls-1" points="377.43 156.07 408.19 155.93 415.8 155.93 422.48 155.93 422.32 145.5 489.43 145.5 489.43 217.5 452.15 217.5 452.15 205.07 411.6 205.07 400.88 201.21 377.58 201.21 377.43 156.07"/>
<rect class="cls-1" x="344.86" y="156.07" width="30.86" height="44.71"/>
<rect class="cls-1" x="285.43" y="82.5" width="38.29" height="55.21"/>
<rect id="odontologia" class="cls-1" x="124.86" y="170.93" width="62.29" height="85.71"/>
<rect id="triaje" class="cls-1" x="189.43" y="170.93" width="40.57" height="37.14"/><text class="cls-2" transform="translate(392.05 249.85)">ENTRADA SUR</text><text class="cls-2" transform="translate(11.6 156.85)">ENTRADA <tspan x="1.88" y="10">NORTE</tspan></text><rect class="cls-1" x="74.57" y="171.64" width="46.14" height="52.57"/>
<rect class="cls-1" x="190" y="211.5" width="38.86" height="44.57"/>
<polygon id="area3" class="cls-1" points="242.15 171.07 324.29 171.07 324.29 192.93 312.44 192.93 312.44 186.5 279.17 186.5 279.17 208.64 242 208.64 242.15 171.07"/><rect id="cardiologia" class="cls-1" x="336.29" y="101.36" width="78.86" height="37.57"/>
<rect id="dermatologia" class="cls-1" x="392.29" y="68.21" width="52" height="30.86"/>
<rect id="area4" class="cls-1" x="335.71" y="68.79" width="53.14" height="30.29"/>
<polygon id="laboratorio" class="cls-1" points="75.61 102.36 122.16 48.07 133.43 48.07 133.43 153.21 75 153.21 75.61 102.36"/>
<rect id="area5" class="cls-1" x="242.86" y="82.72" width="39.14" height="55.21"/><text class="cls-2" transform="translate(245.71 239.02)">EMERGENCIAS</text><text class="cls-2" transform="translate(403.89 186.28)">CAFETERIA</text><rect class="cls-9" x="328.07" y="177.07" width="50.79" height="9.86"/><text class="cls-10" transform="translate(328.81 186.17)">FARMACIA</text><text class="cls-10" transform="translate(255.03 156.74)">SALA ESPERA</text><text class="cls-10" transform="translate(165.94 86.45)">SALA ESPERA</text>
<rect id="area6" class="cls-1" x="389.14" y="0.64" width="55.14" height="36.57"/>
<rect id="psiquiatria" class="cls-1" x="458.57" y="1.07" width="32.43" height="69.71"/>
<rect class="cls-9" x="71.22" y="191.91" width="60.79" height="10.71"/><text class="cls-10" transform="translate(69.87 200.58)">RECEPCION</text>
<rect id="area7" class="cls-1" x="147.14" y="30.5" width="40.57" height="36"/><text x="6.57" y="-4.82"/>
<text class="cls-10" transform="translate(340 124)">CARDIOLOGIA</text>
<rect id="psicologia" class="cls-1" x="418" y="103.07" width="71.43" height="38.29"/>
<rect class="cls-9" x="53.43" y="111.7" width="64" height="10.8"/><text class="cls-10" transform="translate(55.9 120.37)">LABORATORIO</text><rect class="cls-9" x="431.43" y="44.19" width="53.29" height="10.71"/><text class="cls-10" transform="translate(420.02 52.86)">PSIQUIATRIA</text><text class="cls-10" transform="translate(424.35 126.17)">PSICOLOGIA</text><rect class="cls-9" x="396.96" y="76.89" width="70.18" height="10.8"/><text class="cls-10" transform="translate(397.67 85.56)">DERMATOLOGIA</text><rect class="cls-9" x="110.14" y="227.56" width="69" height="10.8"/><text class="cls-10" transform="translate(112.03 236.23)">ODONTOLOGIA</text><text class="letra-chica" transform="translate(191.86 237.71)">CIRUGIA</text><rect class="cls-9" x="134.86" y="116.69" width="54.29" height="10.8"/><text class="cls-10" transform="translate(135.11 125.36)">RADIOLOGIA</text><text class="cls-10" transform="translate(188.55 135.74)">MEDICINA<tspan x="1.88" y="10">GENERAL</tspan></text><text class="letra-chica" transform="translate(251.46 49.03)">OFTALMOLOGIA</text><text class="cls-10" transform="translate(193.17 190.6)">TRIAJE</text><rect class="cls-9" x="286.95" y="108.21" width="31" height="9.27"/><text class="cls-10" transform="translate(289.78 115.66)">BAÑOS</text><text class="cls-10" transform="translate(154.54 50.52)"></text><text class="cls-10" transform="translate(202.96 50.6)"></text><text class="cls-10" transform="translate(346.39 19.89)"></text><text class="cls-10" transform="translate(400.53 21.6)"></text><text class="cls-10" transform="translate(248.39 111.74)"></text><text class="cls-10" transform="translate(346.96 86.17)"></text><text class="cls-10" transform="translate(247.73 186.9)"></text><rect class="cls-30" x="30" y="25.93" width="69.86" height="27.43"/><rect class="cls-29" x="39.47" y="34.55" width="10.57" height="10.57"/><text class="cls-27" transform="translate(55.05 41.4)"><tspan class="cls-28">Pendiente</tspan></text></svg>